# xmcd
#
# Track frame offsets:
#	150
#	15726
#	30562
#	48287
#	65856
#	82185
#	98502
#	110626
#	131843
#	146175
#	162614
#	178166
#	195374
#	210053
#	227887
#	239221
#	258346
#	275327
#	291267
#
# Disc length: 4044 seconds
#
# Revision: 0
# Processed by: cddbd v1.5.2PL0 Copyright (c) Steve Scherf et al.
# Submitted via: EasyCDDAExtractor 2010.6.0.0
#
DISCID=210fca13
DTITLE=Various Artist - Hott Country 28
DYEAR=1900
DGENRE=Country
TTITLE0=	Strait,George - I Just Want To Dance With You
TTITLE1=	Wills,Mark  -  I Do(Cherish You)
TTITLE2=	Mcentire,Reba - Brooks and Dunn  -  If You See Him - If You See Her
TTITLE3=	Kershaw,Sammy  -  Matches
TTITLE4=	Herndon,Ty  -  Man Holding On
TTITLE5=	Clark,Terri  -  Now That I Found You
TTITLE6=	Diffie,Joe  -  Texas Size Heartache
TTITLE7=	Twain,Shania - White,Bryan  -  From This Moment On
TTITLE8=	Dixie Chicks  -  Theres Your Trouble
TTITLE9=	Raye,Collin - I Can Still Feel You
TTITLE10=	Mcbride,Martina - Happy Girl
TTITLE11=	Yearwood,Trisha - There Goes My Baby
TTITLE12=	Morgan,Lorrie - Im Not That Easy To Forget
TTITLE13=	Judd,Wynonna - Always Will
TTITLE14=	Hayes,Wade - When The Wrong One Loves You Right
TTITLE15=	Brandt,Paul - Yeah
TTITLE16=	Berry,John - Over My Shoulder
TTITLE17=	Major,Charlie - Thank Lord For The Nightime
TTITLE18=	Grand,Gil - Famous First Words
EXTD=
EXTT0=
EXTT1=
EXTT2=
EXTT3=
EXTT4=
EXTT5=
EXTT6=
EXTT7=
EXTT8=
EXTT9=
EXTT10=
EXTT11=
EXTT12=
EXTT13=
EXTT14=
EXTT15=
EXTT16=
EXTT17=
EXTT18=
PLAYORDER=
